<?xml version="1.0" encoding="utf-8"?>
<!-- Generator: Adobe Illustrator 26.3.1, SVG Export Plug-In . SVG Version: 6.00 Build 0)  -->
<svg version="1.1" id="Layer_1" xmlns="http://www.w3.org/2000/svg" xmlns:xlink="http://www.w3.org/1999/xlink" x="0px" y="0px"
	 viewBox="0 0 96 31" style="enable-background:new 0 0 96 31;" xml:space="preserve">
<style type="text/css">
	.st0{fill:#37B34A;}
	.st1{fill:#009345;}
	.st2{fill:#006838;}
	.st3{fill:#092617;}
	.st4{fill:url(#SVGID_1_);}
	.st5{fill:url(#SVGID_00000047755459849461909990000005716340860043901879_);}
	.st6{fill:url(#SVGID_00000088120413189250497820000016594342981528876444_);}
	.st7{fill:url(#SVGID_00000055687564948145039440000004213005146207808191_);}
	.st8{fill:url(#SVGID_00000016779286130453519780000007404082739831147665_);}
	.st9{fill:url(#SVGID_00000060746429777031729180000007569053119453783688_);}
	.st10{fill:url(#SVGID_00000004521368584675112760000004966133473384279482_);}
	.st11{fill:url(#SVGID_00000005969339837236798270000006528774396734112142_);}
	.st12{fill:url(#SVGID_00000114071513993799131170000000236832773551313808_);}
</style>
<g>
	<g>
		<g>
			<path class="st0" d="M34.5,10.8h1.8v9.4h-1.8V10.8z M35.4,18.5h2.3c0.6,0,1-0.1,1.4-0.4c0.3-0.3,0.5-0.7,0.5-1.2v-2.8
				c0-0.5-0.2-0.9-0.5-1.2c-0.3-0.3-0.8-0.4-1.4-0.4h-2.3v-1.7h2.2c0.8,0,1.5,0.1,2,0.4c0.6,0.3,1,0.6,1.3,1.2
				c0.3,0.5,0.4,1.1,0.4,1.8v2.7c0,0.7-0.1,1.3-0.4,1.8c-0.3,0.5-0.7,0.9-1.3,1.2c-0.6,0.3-1.2,0.4-2,0.4h-2.2V18.5z"/>
			<path class="st0" d="M42.4,13.5h1.7l2.3,5.8l-1.1,1.4L42.4,13.5z M48.6,13.5l-3,8.3c-0.1,0.3-0.3,0.5-0.4,0.7
				c-0.2,0.2-0.4,0.3-0.6,0.4C44.3,23,44,23,43.7,23h-0.4v-1.7h0.4c0.2,0,0.3,0,0.5-0.1c0.1-0.1,0.2-0.2,0.3-0.4l2.5-7.3H48.6z"/>
			<path class="st0" d="M49.5,13.5h1.8v6.7h-1.8V13.5z M53.4,16.1c0-0.3-0.1-0.6-0.3-0.8c-0.2-0.2-0.5-0.3-0.8-0.3
				c-0.3,0-0.6,0.1-0.8,0.3c-0.2,0.2-0.3,0.4-0.3,0.8l-0.1-1.5c0.2-0.4,0.4-0.7,0.7-1c0.3-0.2,0.6-0.3,1.1-0.3
				c0.7,0,1.3,0.2,1.6,0.7c0.4,0.5,0.6,1.2,0.6,2v4.1h-1.8V16.1z"/>
			<path class="st0" d="M58,20c-0.4-0.2-0.8-0.6-1-1c-0.2-0.4-0.3-1-0.3-1.6v-1.1c0-0.6,0.1-1.1,0.3-1.6c0.2-0.4,0.6-0.8,1-1
				c0.4-0.2,1-0.3,1.6-0.3c0.6,0,1.1,0.1,1.6,0.3c0.4,0.2,0.8,0.6,1,1c0.2,0.4,0.3,1,0.3,1.6v1.1c0,0.6-0.1,1.1-0.3,1.6
				c-0.2,0.4-0.6,0.8-1,1c-0.4,0.2-1,0.3-1.6,0.3C59,20.3,58.5,20.2,58,20z M60.4,18.3c0.2-0.2,0.3-0.5,0.3-0.9v-1.1
				c0-0.4-0.1-0.7-0.3-0.9c-0.2-0.2-0.5-0.3-0.8-0.3c-0.4,0-0.6,0.1-0.8,0.3c-0.2,0.2-0.3,0.5-0.3,0.9v1.1c0,0.4,0.1,0.7,0.3,0.9
				c0.2,0.2,0.5,0.3,0.8,0.3C60,18.6,60.2,18.5,60.4,18.3z"/>
		</g>
		<g>
			<path class="st1" d="M65.9,19.9c-0.5-0.3-0.9-0.7-1.2-1.2c-0.3-0.5-0.4-1.2-0.4-1.9v-2.6c0-0.7,0.1-1.4,0.4-1.9
				c0.3-0.5,0.7-0.9,1.2-1.2c0.5-0.3,1.1-0.4,1.8-0.4c0.6,0,1.1,0.1,1.6,0.4c0.5,0.3,0.9,0.6,1.2,1.1c0.3,0.5,0.5,1.1,0.6,1.8h-1.8
				c-0.1-0.3-0.2-0.6-0.3-0.8c-0.1-0.2-0.3-0.4-0.5-0.5c-0.2-0.1-0.4-0.2-0.7-0.2c-0.3,0-0.6,0.1-0.8,0.2c-0.2,0.1-0.4,0.3-0.5,0.6
				c-0.1,0.3-0.2,0.6-0.2,0.9v2.6c0,0.4,0.1,0.7,0.2,0.9c0.1,0.3,0.3,0.5,0.5,0.6c0.2,0.1,0.5,0.2,0.8,0.2c0.3,0,0.5-0.1,0.7-0.2
				c0.2-0.1,0.4-0.3,0.5-0.5c0.1-0.2,0.2-0.5,0.3-0.8h1.8c-0.1,0.7-0.3,1.3-0.6,1.8c-0.3,0.5-0.7,0.9-1.2,1.1
				c-0.5,0.3-1,0.4-1.6,0.4C67,20.3,66.4,20.2,65.9,19.9z"/>
			<path class="st1" d="M72.6,10.8h1.8v9.4h-1.8V10.8z M76.4,16.1c0-0.3-0.1-0.6-0.3-0.8c-0.2-0.2-0.5-0.3-0.8-0.3
				c-0.3,0-0.6,0.1-0.8,0.3c-0.2,0.2-0.3,0.4-0.3,0.8l-0.1-1.5c0.2-0.4,0.4-0.7,0.7-1c0.3-0.2,0.6-0.3,1.1-0.3
				c0.7,0,1.3,0.2,1.6,0.7c0.4,0.5,0.6,1.2,0.6,2v4.1h-1.8V16.1z"/>
			<path class="st1" d="M80.2,19.8c-0.4-0.3-0.5-0.9-0.5-1.6c0-0.7,0.2-1.2,0.6-1.5c0.4-0.3,1-0.5,1.8-0.5h1.7l0.1,1.4H82
				c-0.3,0-0.5,0.1-0.6,0.2c-0.1,0.1-0.2,0.3-0.2,0.5c0,0.2,0.1,0.4,0.3,0.5c0.2,0.1,0.4,0.2,0.8,0.2c0.5,0,0.8-0.1,1.1-0.2
				c0.2-0.1,0.3-0.3,0.3-0.5l0.1,1c0,0.2-0.1,0.4-0.3,0.6c-0.2,0.2-0.4,0.3-0.7,0.4c-0.3,0.1-0.6,0.1-0.9,0.1
				C81.1,20.3,80.5,20.1,80.2,19.8z M83.7,16c0-0.3-0.1-0.6-0.3-0.7c-0.2-0.2-0.5-0.3-0.9-0.3c-0.3,0-0.5,0-0.7,0.1
				c-0.2,0.1-0.5,0.2-0.7,0.3L80,14.4c0.3-0.3,0.6-0.5,1.1-0.7c0.4-0.2,0.9-0.3,1.5-0.3c0.6,0,1.1,0.1,1.5,0.3
				c0.4,0.2,0.7,0.5,0.9,0.9c0.2,0.4,0.3,0.8,0.3,1.3v4.3h-1.6V16z"/>
			<path class="st1" d="M86.9,10.8h1.8v1.8h-1.8V10.8z M86.9,13.5h1.8v6.7h-1.8V13.5z"/>
			<path class="st1" d="M90.3,13.5h1.8v6.7h-1.8V13.5z M94.2,16.1c0-0.3-0.1-0.6-0.3-0.8c-0.2-0.2-0.5-0.3-0.8-0.3
				c-0.3,0-0.6,0.1-0.8,0.3c-0.2,0.2-0.3,0.4-0.3,0.8L92,14.7c0.2-0.4,0.4-0.7,0.7-1c0.3-0.2,0.6-0.3,1.1-0.3c0.7,0,1.3,0.2,1.6,0.7
				c0.4,0.5,0.6,1.2,0.6,2v4.1h-1.8V16.1z"/>
		</g>
	</g>
	<g>
		<polygon class="st2" points="6,9.2 6,20 15.3,25.4 24.6,20 24.6,9.2 15.3,3.9 		"/>
		<polygon class="st2" points="6,10.8 6,21.6 15.3,27 24.6,21.6 24.6,10.8 15.3,5.5 		"/>
		<polygon class="st3" points="6,10 6,20.7 15.3,26.1 24.6,20.7 24.6,10 15.3,4.6 		"/>
		<g>
			<linearGradient id="SVGID_1_" gradientUnits="userSpaceOnUse" x1="11.469" y1="5.8906" x2="27.7221" y2="5.8906">
				<stop  offset="0" style="stop-color:#009345"/>
				<stop  offset="0.5419" style="stop-color:#37B34A"/>
				<stop  offset="1" style="stop-color:#006838"/>
			</linearGradient>
			<polygon class="st4" points="27.7,11 27.3,11 27.3,8.3 15.3,1.3 11.7,3.3 11.5,2.9 15.3,0.8 27.7,8 			"/>
		</g>
		<g>
			
				<linearGradient id="SVGID_00000146487133494117413110000014284464736764732324_" gradientUnits="userSpaceOnUse" x1="3.4499" y1="25.1094" x2="19.7029" y2="25.1094">
				<stop  offset="0" style="stop-color:#009345"/>
				<stop  offset="0.5419" style="stop-color:#37B34A"/>
				<stop  offset="1" style="stop-color:#006838"/>
			</linearGradient>
			<polygon style="fill:url(#SVGID_00000146487133494117413110000014284464736764732324_);" points="3.4,20 3.9,20 3.9,22.7 
				15.9,29.7 19.5,27.7 19.7,28.1 15.9,30.2 3.4,23 			"/>
		</g>
		
			<linearGradient id="SVGID_00000073689593926412397970000004725262128225465234_" gradientUnits="userSpaceOnUse" x1="10.7502" y1="3.0006" x2="12.4951" y2="3.0006">
			<stop  offset="0" style="stop-color:#009345"/>
			<stop  offset="0.5419" style="stop-color:#37B34A"/>
			<stop  offset="1" style="stop-color:#006838"/>
		</linearGradient>
		<circle style="fill:url(#SVGID_00000073689593926412397970000004725262128225465234_);" cx="11.6" cy="3" r="0.9"/>
		<g>
			
				<linearGradient id="SVGID_00000085212197456678849610000013962807517141493676_" gradientUnits="userSpaceOnUse" x1="-519.224" y1="11.9751" x2="-506.505" y2="11.9751" gradientTransform="matrix(-5.345524e-02 0.9986 -0.9986 -5.345524e-02 10.6667 533.3746)">
				<stop  offset="0" style="stop-color:#009345"/>
				<stop  offset="0.5419" style="stop-color:#37B34A"/>
				<stop  offset="1" style="stop-color:#006838"/>
			</linearGradient>
			<polygon style="fill:url(#SVGID_00000085212197456678849610000013962807517141493676_);" points="21.8,26.7 21.8,26.4 24,26.5 
				29.9,17.4 28.5,14.5 28.8,14.4 30.3,17.5 24.1,26.9 			"/>
		</g>
		<g>
			
				<linearGradient id="SVGID_00000174568062492590651240000016706677295582480512_" gradientUnits="userSpaceOnUse" x1="113.2966" y1="564.6132" x2="126.0157" y2="564.6132" gradientTransform="matrix(-1.220085e-07 -1 1 -1.220085e-07 -559.5344 129.8888)">
				<stop  offset="0" style="stop-color:#009345"/>
				<stop  offset="0.5419" style="stop-color:#37B34A"/>
				<stop  offset="1" style="stop-color:#006838"/>
			</linearGradient>
			<polygon style="fill:url(#SVGID_00000174568062492590651240000016706677295582480512_);" points="9.1,3.9 9.1,4.2 6.9,4.2 
				1.5,13.6 3.1,16.4 2.8,16.6 1.1,13.6 6.7,3.9 			"/>
		</g>
		
			<linearGradient id="SVGID_00000110433101912972149640000002605372878159744689_" gradientUnits="userSpaceOnUse" x1="26.619" y1="11.0045" x2="28.3639" y2="11.0045">
			<stop  offset="0" style="stop-color:#009345"/>
			<stop  offset="0.5419" style="stop-color:#37B34A"/>
			<stop  offset="1" style="stop-color:#006838"/>
		</linearGradient>
		<circle style="fill:url(#SVGID_00000110433101912972149640000002605372878159744689_);" cx="27.5" cy="11" r="0.9"/>
		
			<linearGradient id="SVGID_00000058577703860836653070000013832325591310225826_" gradientUnits="userSpaceOnUse" x1="2.8856" y1="19.9955" x2="4.6305" y2="19.9955">
			<stop  offset="0" style="stop-color:#009345"/>
			<stop  offset="0.5419" style="stop-color:#37B34A"/>
			<stop  offset="1" style="stop-color:#006838"/>
		</linearGradient>
		<circle style="fill:url(#SVGID_00000058577703860836653070000013832325591310225826_);" cx="3.8" cy="20" r="0.9"/>
		
			<linearGradient id="SVGID_00000129891887595351052390000000233833553431662014_" gradientUnits="userSpaceOnUse" x1="18.7231" y1="28.0906" x2="20.468" y2="28.0906">
			<stop  offset="0" style="stop-color:#009345"/>
			<stop  offset="0.5419" style="stop-color:#37B34A"/>
			<stop  offset="1" style="stop-color:#006838"/>
		</linearGradient>
		<circle style="fill:url(#SVGID_00000129891887595351052390000000233833553431662014_);" cx="19.6" cy="28.1" r="0.9"/>
		
			<linearGradient id="SVGID_00000182520230285724108580000002129215686182518913_" gradientUnits="userSpaceOnUse" x1="9.6606" y1="15.5883" x2="21.5889" y2="15.5883">
			<stop  offset="0" style="stop-color:#009345"/>
			<stop  offset="0.5419" style="stop-color:#37B34A"/>
			<stop  offset="1" style="stop-color:#006838"/>
		</linearGradient>
		<path style="fill:url(#SVGID_00000182520230285724108580000002129215686182518913_);" d="M17.3,9.8c-1.1-0.3-2.1-0.2-3-0.3
			c-0.8,0-1.4,0-2,0c-1.2,0-2.1,0.6-2.5,1.6c-0.4,1-0.1,2,0.7,2.8c0.3,0.3,0.5,0.7,0.8,0.7c0.4,0,0.6-0.5,0.9-0.8
			c0.2-0.2,0.2-0.3,0-0.5c-0.3-0.2-0.5-0.5-0.8-0.8c-0.3-0.3-0.3-0.7-0.2-1c0.1-0.4,0.4-0.6,0.8-0.6c1.4,0,2.8-0.1,4.2,0.1
			c2.1,0.3,3.7,2.1,3.7,4.2c0.1,2.2-1.4,4.1-3.4,4.5C15.1,20.2,13.5,20,12,20c-0.4,0-0.6-0.3-0.7-0.6c-0.1-0.3-0.1-0.7,0.2-0.9
			c0.1-0.1,0.1-0.1,0.2-0.2c0.1,0.2,0.2,0.3,0.4,0.5c0.3,0.3,0.6,0.5,1,0.6c0.4,0.1,0.8,0.1,1.2,0c0.4-0.1,0.8-0.3,1.2-0.6l-0.9-0.9
			c-0.2,0.1-0.4,0.2-0.6,0.2c-0.2,0-0.4,0-0.5,0c-0.2,0-0.3-0.1-0.4-0.3c-0.2-0.2-0.3-0.4-0.3-0.5c0-0.2,0-0.4,0-0.6
			c0.1-0.2,0.2-0.4,0.4-0.6l1.3-1.3c0.2-0.2,0.4-0.3,0.6-0.4c0.2-0.1,0.4-0.1,0.6,0c0.2,0.1,0.4,0.2,0.5,0.3
			c0.1,0.1,0.2,0.3,0.3,0.4c0,0.2,0,0.3,0,0.5c0,0.2-0.1,0.4-0.2,0.6l0.9,0.9c0.3-0.4,0.5-0.8,0.6-1.2c0.1-0.4,0.1-0.8,0-1.2
			c-0.1-0.4-0.3-0.7-0.6-1c-0.4-0.4-0.7-0.6-1.2-0.7c-0.4-0.1-0.8-0.1-1.2,0c-0.4,0.1-0.8,0.4-1.2,0.8l-1.3,1.3
			c-0.4,0.4-0.6,0.8-0.8,1.2c0,0,0,0.1,0,0.1l0,0c-0.3,0.3-0.7,0.7-1,1c-0.6,0.7-0.7,1.5-0.4,2.4c0.3,0.9,1,1.5,1.9,1.5
			c1.6,0.1,3.2,0.2,4.8,0c2.7-0.4,4.9-2.7,5-5.4C21.8,13.2,20,10.6,17.3,9.8z"/>
	</g>
</g>
</svg>
